# File created by Blade
# Date/Time:  Wed Jan 21 17:57:11 2015
# Frame Rate: 120.000 fps
#------------------------------------------------------
:FULLY-SPECIFIED
:DEGREES
1021
root 19.165469 29.685004 -14.881398 -107.546918 -23.001523 -178.362264
Spine 62.627828 16.992111 -17.357269
Head 178.652193 -53.385705 168.960255
LeftShoulder 19.755254 -44.609302 -4.224442
LeftArm 17.354243 -13.379254 -29.621555
LeftForeArm -74.595724 -0.000000 73.299892
LeftHand 6.905118 -0.000000 -10.107531
LeftHandThumb1 -26.253704 0.000000 33.147579
RightShoulder 13.805688 38.127173 -36.137112
RightArm 79.647821 22.052468 37.659073
RightForeArm -36.558451 -0.000000 52.897334
RightHand 4.722579 -0.000000 -3.805816
RightHandThumb1 -24.326973 -0.000000 -32.862282
LeftUpLeg -85.673845 25.648837 24.339596
LeftLeg 4.659641 -0.000000 -0.000000
LeftFoot -13.553717 5.080679 -19.267743
LeftToeBase 35.674418 -0.000000 -0.000000
RightUpLeg -69.584691 -35.792856 10.229859
RightLeg -5.271351 -0.000000 0.000000
RightFoot -12.016502 -9.367628 32.512583
RightToeBase 27.656334 -0.000000 -0.000000
1022
root 19.173325 29.683714 -14.924125 -107.600456 -23.207830 -178.322056
Spine 62.552946 17.359397 -17.511256
Head 177.054967 -52.138855 170.467712
LeftShoulder 20.113425 -44.393982 -4.454056
LeftArm 17.690194 -13.516460 -29.244615
LeftForeArm -74.715428 0.000000 73.788648
LeftHand 7.134791 -0.000000 -9.581347
LeftHandThumb1 -26.253704 0.000000 33.147579
RightShoulder 14.230894 37.978073 -36.172555
RightArm 79.499876 23.031596 36.983134
RightForeArm -36.691046 -0.000000 52.608823
RightHand 4.860866 0.000000 -3.300429
RightHandThumb1 -24.326973 -0.000000 -32.862282
LeftUpLeg -85.521761 25.606675 24.818559
LeftLeg 4.736828 -0.000000 -0.000000
LeftFoot -13.743861 5.249659 -19.286068
LeftToeBase 35.696426 -0.000000 -0.000000
RightUpLeg -69.270817 -35.764790 10.211081
RightLeg -5.360950 -0.000000 0.000000
RightFoot -12.238192 -9.362263 32.496015
RightToeBase 27.247662 -0.000000 -0.000000
1023
root 19.167547 29.686650 -14.943637 -107.451051 -23.349439 -178.431128
Spine 62.322732 17.501134 -17.808928
Head 175.570256 -50.783638 171.760988
LeftShoulder 20.299613 -44.125189 -4.556080
LeftArm 17.986463 -13.680051 -28.969181
LeftForeArm -74.604035 -0.000000 74.299686
LeftHand 6.977681 -0.000000 -8.894852
LeftHandThumb1 -26.253704 0.000000 33.147579
RightShoulder 14.597838 37.732398 -36.301206
RightArm 79.516851 23.956167 36.564031
RightForeArm -36.969323 0.000000 52.340051
RightHand 5.017587 -0.000000 -2.697719
RightHandThumb1 -24.326973 -0.000000 -32.862282
LeftUpLeg -85.665675 25.491561 25.021243
LeftLeg 4.880515 -0.000000 -0.000000
LeftFoot -13.862996 5.359070 -19.373295
LeftToeBase 35.911426 -0.000000 -0.000000
RightUpLeg -69.238622 -35.837205 10.174108
RightLeg -5.340439 -0.000000 0.000000
RightFoot -12.429198 -9.349759 32.603894
RightToeBase 26.767132 -0.000000 -0.000000
1024
root 19.165558 29.685562 -14.987724 -107.469735 -23.494727 -178.455051
Spine 62.279116 17.822103 -18.026663
Head 174.167479 -49.409658 173.005053
LeftShoulder 20.739074 -44.013888 -4.722230
LeftArm 18.066327 -13.703432 -28.529538
LeftForeArm -74.703733 -0.000000 74.804795
LeftHand 6.969383 -0.000000 -8.394311
LeftHandThumb1 -26.253704 0.000000 33.147579
RightShoulder 14.978745 37.416404 -36.360030
RightArm 79.468254 25.012766 35.941296
RightForeArm -36.971676 -0.000000 52.033731
RightHand 5.221309 -0.000000 -2.040920
RightHandThumb1 -24.326973 -0.000000 -32.862282
LeftUpLeg -85.681835 25.434306 25.099958
LeftLeg 4.982406 -0.000000 -0.000000
LeftFoot -14.001762 5.237101 -19.284335
LeftToeBase 36.119471 -0.000000 -0.000000
RightUpLeg -68.994567 -35.875104 10.152480
RightLeg -5.415409 -0.000000 0.000000
RightFoot -12.622957 -9.343908 32.548534
RightToeBase 26.589515 -0.000000 -0.000000
1025
root 19.162862 29.684972 -15.022838 -107.423763 -23.644998 -178.508522
Spine 62.194818 18.051574 -18.269408
Head 172.999312 -48.059102 173.935334
LeftShoulder 21.022686 -43.899372 -4.784457
LeftArm 18.163802 -13.651670 -28.106975
LeftForeArm -74.885291 -0.000000 75.272933
LeftHand 6.975486 -0.000000 -8.036889
LeftHandThumb1 -26.253704 0.000000 33.147579
RightShoulder 15.274064 37.058756 -36.542234
RightArm 79.449390 26.088084 35.383570
RightForeArm -37.013973 -0.000000 51.799722
RightHand 5.311336 -0.000000 -1.060595
RightHandThumb1 -24.326973 -0.000000 -32.862282
LeftUpLeg -85.827520 25.374562 25.078351
LeftLeg 5.124466 -0.000000 -0.000000
LeftFoot -14.051435 5.107887 -19.168637
LeftToeBase 35.799492 -0.000000 -0.000000
RightUpLeg -68.843492 -35.935503 10.152074
RightLeg -5.454887 -0.000000 0.000000
RightFoot -12.820427 -9.371454 32.476401
RightToeBase 26.584778 -0.000000 -0.000000
1026
root 19.287289 29.714775 -15.047371 -106.998324 -25.153582 -178.417506
Spine 61.563848 17.539704 -17.226102
Head 171.286691 -46.753803 174.724201
LeftShoulder 21.122620 -43.475139 -5.044506
LeftArm 18.230022 -13.678884 -27.636238
LeftForeArm -75.130884 -0.000000 75.831838
LeftHand 6.701338 -0.000000 -7.577121
LeftHandThumb1 -26.253704 0.000000 33.147579
RightShoulder 15.910090 36.824887 -36.721526
RightArm 79.304332 26.896496 34.747641
RightForeArm -36.951430 -0.000000 51.577498
RightHand 5.317539 -0.000000 0.143377
RightHandThumb1 -24.326973 -0.000000 -32.862282
LeftUpLeg -98.260627 25.762594 11.320342
LeftLeg 14.656530 -0.000000 -0.000000
LeftFoot -10.437495 -6.373290 -20.516505
LeftToeBase 35.562122 -0.000000 -0.000000
RightUpLeg -69.265782 -36.074213 12.205707
RightLeg -5.755623 -0.000000 0.000000
RightFoot -12.994714 -9.394065 32.014016
RightToeBase 26.470035 -0.000000 -0.000000
1027
root 19.433767 29.712730 -15.138862 -107.265722 -26.749267 -177.765166
Spine 61.367583 17.730637 -15.864839
Head 170.011461 -45.453836 175.227017
LeftShoulder 21.374272 -43.145036 -5.271109
LeftArm 18.287790 -13.696404 -27.078803
LeftForeArm -75.660246 -0.000000 76.342155
LeftHand 6.594954 0.000000 -7.296966
LeftHandThumb1 -26.253704 0.000000 33.147579
RightShoulder 16.471760 36.607611 -36.837826
RightArm 79.063196 27.772033 34.040430
RightForeArm -36.753969 -0.000000 51.400434
RightHand 5.361511 -0.000000 1.604130
RightHandThumb1 -24.326973 -0.000000 -32.862282
LeftUpLeg -106.914116 25.242071 3.250575
LeftLeg 22.381913 -0.000000 -0.000000
LeftFoot -5.718169 -11.987370 -23.232231
LeftToeBase 35.065555 -0.000000 -0.000000
RightUpLeg -69.097820 -35.937136 14.564147
RightLeg -6.244871 -0.000000 0.000000
RightFoot -13.053077 -9.075172 31.296023
RightToeBase 26.527756 -0.000000 -0.000000
1028
root 19.157589 29.688116 -15.118235 -106.940090 -24.114839 -178.741690
Spine 61.534824 18.572451 -19.031927
Head 169.281048 -43.745951 176.552628
LeftShoulder 22.085398 -43.102398 -5.069525
LeftArm 18.265569 -13.649827 -26.474777
LeftForeArm -76.132067 -0.000000 76.781040
LeftHand 6.613726 -0.000000 -7.089896
LeftHandThumb1 -26.253704 0.000000 33.147579
RightShoulder 16.651247 36.709009 -36.524315
RightArm 78.484216 28.431748 33.344241
RightForeArm -36.679009 -0.000000 51.321984
RightHand 5.289375 0.000000 3.194414
RightHandThumb1 -24.326973 -0.000000 -32.862282
LeftUpLeg -86.430465 25.259199 25.009635
LeftLeg 5.281943 -0.000000 -0.000000
LeftFoot -14.011501 4.798177 -19.434787
LeftToeBase 35.144918 -0.000000 -0.000000
RightUpLeg -69.050156 -36.185384 10.626240
RightLeg -5.388434 -0.000000 0.000000
RightFoot -13.214794 -9.177498 32.526766
RightToeBase 26.063390 -0.000000 -0.000000
1029
root 19.156952 29.686530 -15.153813 -106.815591 -24.249348 -178.749198
Spine 61.330131 18.836098 -19.273714
Head 168.251544 -42.269208 177.252339
LeftShoulder 22.448794 -42.847285 -5.110260
LeftArm 18.286742 -13.654860 -25.957025
LeftForeArm -76.550975 0.000000 77.222855
LeftHand 6.498216 0.000000 -6.906828
LeftHandThumb1 -26.253704 0.000000 33.147579
RightShoulder 17.074996 36.618384 -36.520991
RightArm 77.979681 29.167877 32.537156
RightForeArm -36.588890 -0.000000 51.202042
RightHand 5.245917 -0.000000 4.935706
RightHandThumb1 -24.326973 -0.000000 -32.862282
LeftUpLeg -86.583134 25.299257 24.990114
LeftLeg 5.322663 -0.000000 -0.000000
LeftFoot -14.061089 4.642586 -19.408224
LeftToeBase 35.114214 -0.000000 -0.000000
RightUpLeg -69.031037 -36.173072 10.695060
RightLeg -5.400843 -0.000000 0.000000
RightFoot -13.375087 -9.195962 32.497575
RightToeBase 25.975220 -0.000000 -0.000000
1030
root 19.156504 29.685584 -15.192496 -106.679094 -24.389312 -178.756222
Spine 61.126410 19.071400 -19.523348
Head 167.230128 -40.884737 177.848595
LeftShoulder 22.794461 -42.616170 -5.189469
LeftArm 18.312607 -13.688958 -25.438668
LeftForeArm -77.102030 -0.000000 77.697320
LeftHand 6.592848 -0.000000 -6.629509
LeftHandThumb1 -26.253704 0.000000 33.147579
RightShoulder 17.540339 36.572903 -36.444735
RightArm 77.502566 29.795626 31.799868
RightForeArm -36.604726 -0.000000 51.021206
RightHand 5.237706 0.000000 6.792157
RightHandThumb1 -24.326973 -0.000000 -32.862282
LeftUpLeg -86.781827 25.353907 24.864882
LeftLeg 5.339434 -0.000000 -0.000000
LeftFoot -14.105977 4.443657 -19.328228
LeftToeBase 35.254137 -0.000000 -0.000000
RightUpLeg -69.028933 -36.155446 10.786503
RightLeg -5.407219 -0.000000 0.000000
RightFoot -13.567944 -9.238276 32.445796
RightToeBase 25.879906 -0.000000 -0.000000
1031
root 19.145517 29.686160 -15.209327 -106.391046 -24.442496 -178.881352
Spine 60.767001 19.151049 -19.926245
Head 166.066714 -39.451404 178.457401
LeftShoulder 23.057935 -42.331095 -5.245796
LeftArm 18.336345 -13.753548 -24.982886
LeftForeArm -77.450696 -0.000000 78.184761
LeftHand 6.427628 -0.000000 -6.222794
LeftHandThumb1 -26.253704 0.000000 33.147579
RightShoulder 18.134673 36.871796 -36.270076
RightArm 76.584970 30.036205 30.759341
RightForeArm -36.694302 -0.000000 50.882243
RightHand 5.139024 -0.000000 8.695373
RightHandThumb1 -24.326973 -0.000000 -32.862282
LeftUpLeg -87.086838 25.326721 24.769076
LeftLeg 5.422527 -0.000000 -0.000000
LeftFoot -14.218862 4.419753 -19.272456
LeftToeBase 35.464380 -0.000000 -0.000000
RightUpLeg -69.190583 -36.183075 10.716866
RightLeg -5.300606 -0.000000 0.000000
RightFoot -13.881715 -9.359881 32.298453
RightToeBase 25.893825 -0.000000 -0.000000
1032
root 19.142240 29.685424 -15.243725 -106.198761 -24.553543 -178.921490
Spine 60.525928 19.339793 -20.204921
Head 165.157952 -37.922480 178.869238
LeftShoulder 23.426345 -42.149724 -5.363734
LeftArm 18.298836 -13.847812 -24.538906
LeftForeArm -77.642981 0.000000 78.687498
LeftHand 6.340207 -0.000000 -5.868841
LeftHandThumb1 -26.253704 0.000000 33.147579
RightShoulder 18.631624 36.996293 -36.249122
RightArm 75.654052 30.461038 29.786878
RightForeArm -37.142228 -0.000000 50.838429
RightHand 5.107600 0.000000 10.390110
RightHandThumb1 -24.326973 -0.000000 -32.862282
LeftUpLeg -87.257233 25.349459 24.781447
LeftLeg 5.460560 -0.000000 -0.000000
LeftFoot -14.220174 4.337336 -19.421158
LeftToeBase 35.139479 -0.000000 -0.000000
RightUpLeg -69.267301 -36.182660 10.804124
RightLeg -5.276595 -0.000000 0.000000
RightFoot -14.053761 -9.366614 32.274255
RightToeBase 25.640427 -0.000000 -0.000000
